#!OML:ASF H:\IndianDance\Patient Classification 1\Patient 1\Session 1\dancer.ASF
:FULLY-SPECIFIED
:DEGREES
2053
root 10.8646 14.2471 -12.0844 -174.642 31.5713 -177.135
lowerback 9.44476 0.728636 2.90945
upperback -11.4498 1.62144 -5.68519
thorax -18.3169 0.124933 -8.8502
lowerneck -11.6438 -12.9152 -9.94355
upperneck -5.53816 -15.3348 4.88136
head 1.39075 -7.12336 2.37145
rclavicle -5.80451e-014 3.02153e-014
rhumerus -4.80116 22.6052 -8.35519
rradius 86.0999
rwrist 8.6725
rhand -42.9526 38.3873
rfingers 7.12502
rthumb -15.8127 9.01312
lclavicle -5.80451e-014 3.02153e-014
lhumerus -13.9727 -28.3868 -12.8296
lradius 38.4869
lwrist -11.5893
lhand -2.74638 3.61482
lfingers 7.12502
lthumb 22.9573 -327.732
rfemur 142.76 185.363 -172.833
rtibia 20.3966
rfoot 143.877 -221.093
rtoes 24.4979
lfemur -25.1551 8.65895 -14.5838
ltibia 66.1868
lfoot -25.6273 10.379
ltoes -12.4586
2054
root 10.8623 14.2255 -12.0442 -174.617 32.6393 -177.344
lowerback 9.51624 1.12955 3.25037
upperback -11.3841 2.20979 -5.74431
thorax -18.1624 0.341856 -9.25003
lowerneck -11.506 -12.8221 -10.0511
upperneck -5.37844 -15.2282 4.56086
head 1.39126 -7.08599 2.29888
rclavicle -4.8901e-014 6.83819e-014
rhumerus -5.4466 25.6308 -10.7201
rradius 84.6947
rwrist 7.6662
rhand -40.1703 35.0276
rfingers 7.12502
rthumb -13.1319 5.46105
lclavicle -4.8901e-014 6.83819e-014
lhumerus -14.7647 -30.5858 -11.6972
lradius 41.5604
lwrist -10.358
lhand -2.98339 2.46193
lfingers 7.12502
lthumb 22.7299 -328.857
rfemur 139.424 191.366 -168.967
rtibia 23.7728
rfoot 151.01 -217.61
rtoes 17.5759
lfemur -25.2773 9.72536 -15.3113
ltibia 65.7082
lfoot -26.5301 11.8427
ltoes -10.1828
2055
root 10.8581 14.1966 -12.0056 -174.855 33.9737 -177.873
lowerback 9.62252 1.6049 3.30826
upperback -11.2825 2.84303 -5.83876
thorax -17.9716 0.618505 -9.53414
lowerneck -11.3726 -12.6916 -10.1424
upperneck -5.18957 -15.0738 4.16904
head 1.39107 -7.0277 2.20404
rclavicle -6.63941e-014 -5.88403e-014
rhumerus -5.99269 28.6445 -13.0456
rradius 83.8406
rwrist 6.49163
rhand -37.2521 32.1695
rfingers 7.12502
rthumb -10.3179 2.44257
lclavicle -6.63941e-014 -5.88403e-014
lhumerus -15.6138 -32.8693 -10.4327
lradius 44.8425
lwrist -8.98627
lhand -2.8138 1.36701
lfingers 7.12502
lthumb 22.8927 -329.972
rfemur 135.79 195.793 -165.678
rtibia 27.635
rfoot 154.96 -214.223
rtoes 12.9628
lfemur -24.9781 10.978 -16.3181
ltibia 65.0048
lfoot -27.8002 13.5379
ltoes -7.18715
2056
root 10.8545 14.1636 -11.9682 -175.394 35.49 -178.744
lowerback 9.76646 2.13617 3.04092
upperback -11.1464 3.49008 -5.95629
thorax -17.7659 0.945832 -9.65753
lowerneck -11.2455 -12.5214 -10.2219
upperneck -4.94262 -14.8691 3.70465
head 1.40084 -6.94849 2.08633
rclavicle -4.01545e-014 -7.95139e-015
rhumerus -6.41129 31.7334 -15.2495
rradius 83.5373
rwrist 5.34786
rhand -34.3359 29.9732
rfingers 7.12502
rthumb -7.50384 0.12625
lclavicle -4.01545e-014 -7.95139e-015
lhumerus -16.5047 -35.2226 -9.03169
lradius 48.3624
lwrist -7.36603
lhand -2.21656 0.351704
lfingers 7.12502
lthumb 23.4657 -331.059
rfemur 132.104 198.959 -162.96
rtibia 31.9208
rfoot 156.993 -211.499
rtoes 10.6936
lfemur -24.3361 12.3203 -17.5364
ltibia 64.1363
lfoot -29.3745 14.9937
ltoes -3.76879
2057
root 10.855 14.1266 -11.931 -176.22 37.0847 -179.901
lowerback 9.95375 2.69776 2.48548
upperback -10.9738 4.12377 -6.07477
thorax -17.5647 1.30515 -9.61209
lowerneck -11.1393 -12.3077 -10.2642
upperneck -4.63248 -14.6084 3.16525
head 1.42269 -6.84589 1.94045
rclavicle -6.04305e-014 6.36111e-015
rhumerus -6.64814 34.954 -17.2824
rradius 83.7285
rwrist 4.49017
rhand -31.5893 28.5356
rfingers 7.12502
rthumb -4.8522 -1.38884
lclavicle -6.04305e-014 6.36111e-015
lhumerus -17.4328 -37.6134 -7.50307
lradius 52.1699
lwrist -5.37789
lhand -1.19937 -0.513263
lfingers 7.12502
lthumb 24.4411 -332.052
rfemur 128.538 201.155 -160.754
rtibia 36.5465
rfoot 158.07 -209.65
rtoes 10.1761
lfemur -23.4709 13.6828 -18.844
ltibia 63.183
lfoot -30.97 16.2074
ltoes -0.76379
2058
root 10.8623 14.0859 -11.8929 -177.254 38.6337 -181.245
lowerback 10.1495 3.26381 1.7224
upperback -10.767 4.72491 -6.17534
thorax -17.3603 1.67762 -9.41719
lowerneck -11.0659 -12.0605 -10.2475
upperneck -4.25715 -14.3047 2.56273
head 1.46042 -6.72638 1.76497
rclavicle 2.46493e-014 1.59028e-015
rhumerus -6.6866 38.3217 -19.0813
rradius 84.4174
rwrist 3.99722
rhand -28.9647 27.7784
rfingers 7.12502
rthumb -2.31765 -2.18875
lclavicle 2.46493e-014 1.59028e-015
lhumerus -18.3513 -39.9794 -5.86749
lradius 56.304
lwrist -2.936
lhand 0.170209 -1.16699
lfingers 7.12502
lthumb 25.7534 -332.89
rfemur 125.194 202.669 -158.943
rtibia 41.411
rfoot 158.708 -208.617
rtoes 10.9912
lfemur -22.5458 14.9997 -20.1079
ltibia 62.2747
lfoot -32.3946 17.1528
ltoes 1.55755
2059
root 10.8789 14.0422 -11.8532 -178.376 40.0165 -182.622
lowerback 10.3241 3.79683 0.869182
upperback -10.5248 5.2656 -6.228
thorax -17.138 2.03654 -9.09669
lowerneck -11.0451 -11.7811 -10.1671
upperneck -3.82741 -13.9556 1.93227
head 1.51766 -6.58765 1.56976
rclavicle 8.62725e-014 -4.13472e-014
rhumerus -6.46133 41.8292 -20.573
rradius 85.5328
rwrist 4.03273
rhand -26.5951 27.6408
rfingers 7.12502
rthumb -0.0290643 -2.3389
lclavicle 8.62725e-014 -4.13472e-014
lhumerus -19.2524 -42.2513 -4.13115
lradius 60.791
lwrist -0.0806166
lhand 1.80726 -1.56114
lfingers 7.12502
lthumb 27.3203 -333.521
rfemur 122.145 203.752 -157.371
rtibia 46.3977
rfoot 159.225 -208.223
rtoes 12.685
lfemur -21.6941 16.2092 -21.1776
ltibia 61.5354
lfoot -33.5139 17.7844
ltoes 3.10958
2060
root 10.9062 13.997 -11.8115 -179.467 41.1536 -183.892
lowerback 10.45 4.26987 0.0295537
upperback -10.2487 5.73016 -6.21812
thorax -16.8783 2.3624 -8.68612
lowerneck -11.0943 -11.4796 -10.0163
upperneck -3.34503 -13.5733 1.30486
head 1.60079 -6.43522 1.36174
rclavicle -3.1408e-014 -8.90555e-014
rhumerus -5.91693 45.4309 -21.7191
rradius 87.0053
rwrist 4.68526
rhand -24.5704 28.0179
rfingers 7.12502
rthumb 1.92647 -1.95312
lclavicle -3.1408e-014 -8.90555e-014
lhumerus -20.1065 -44.397 -2.33535
lradius 65.6703
lwrist 3.14972
lhand 3.62433 -1.6211
lfingers 7.12502
lthumb 29.057 -333.867
rfemur 119.443 204.595 -155.921
rtibia 51.3736
rfoot 159.892 -208.229
rtoes 14.7307
lfemur -21.007 17.2932 -21.9541
ltibia 61.0582
lfoot -34.2318 18.1513
ltoes 3.77588
2061
root 10.9452 13.9515 -11.7681 -180.428 41.9909 -184.952
lowerback 10.5022 4.65721 -0.711389
upperback -9.93522 6.1005 -6.15021
thorax -16.5515 2.63693 -8.22989
lowerneck -11.2417 -11.1713 -9.80285
upperneck -2.80321 -13.1748 0.730645
head 1.72383 -6.27687 1.15498
rclavicle -1.02573e-013 2.22639e-014
rhumerus -4.979 49.0338 -22.4826
rradius 88.7976
rwrist 5.86942
rhand -22.9777 28.7965
rfingers 7.12502
rthumb 3.46459 -1.15507
lclavicle -1.02573e-013 2.22639e-014
lhumerus -20.8337 -46.3644 -0.523541
lradius 70.853
lwrist 6.58416
lhand 5.47145 -1.45322
lfingers 7.12502
lthumb 30.8195 -334.018
rfemur 117.14 205.355 -154.522
rtibia 56.1982
rfoot 160.77 -208.293
rtoes 17.0844
lfemur -20.5119 18.2333 -22.391
ltibia 60.8792
lfoot -34.6064 18.2319
ltoes 3.79424
2062
root 10.9952 13.907 -11.7234 -181.186 42.5029 -185.731
lowerback 10.4795 4.93738 -1.31414
upperback -9.5969 6.35729 -6.01764
thorax -16.1658 2.84603 -7.73882
lowerneck -11.4457 -10.8453 -9.52724
upperneck -2.24291 -12.7535 0.239748
head 1.8686 -6.10772 0.962841
rclavicle -1.21259e-013 -1.01778e-013
rhumerus -3.53119 52.5345 -22.7752
rradius 90.8555
rwrist 7.40135
rhand -21.7472 29.8751
rfingers 7.12502
rthumb 4.65283 -0.0537674
lclavicle -1.21259e-013 -1.01778e-013
lhumerus -21.4094 -48.1851 1.27634
lradius 76.282
lwrist 10.0923
lhand 7.23953 -1.09421
lfingers 7.12502
lthumb 32.5037 -333.991
rfemur 115.264 206.142 -153.143
rtibia 60.7351
rfoot 161.997 -208.131
rtoes 19.5354
lfemur -20.197 19.0393 -22.4783
ltibia 60.9639
lfoot -34.7214 18.041
ltoes 3.34499
2063
root 11.0549 13.8658 -11.6776 -181.712 42.694 -186.207
lowerback 10.3923 5.10833 -1.76319
upperback -9.24489 6.50123 -5.82331
thorax -15.7338 2.98725 -7.22837
lowerneck -11.6747 -10.5239 -9.23247
upperneck -1.67383 -12.3413 -0.133558
head 2.03367 -5.94205 0.802234
rclavicle 3.8763e-014 2.54444e-014
rhumerus -1.52073 55.8206 -22.534
rradius 93.1545
rwrist 9.11231
rhand -20.8665 31.1146
rfingers 7.12502
rthumb 5.50322 1.20606
lclavicle 3.8763e-014 2.54444e-014
lhumerus -21.7577 -49.8959 3.02406
lradius 81.8565
lwrist 13.5194
lhand 8.86876 -0.613507
lfingers 7.12502
lthumb 34.0526 -333.841
rfemur 113.828 207.023 -151.785
rtibia 64.858
rfoot 163.818 -207.574
rtoes 21.7441
lfemur -20.0172 19.718 -22.2464
ltibia 61.2194
lfoot -34.668 17.6331
ltoes 2.5927
2064
root 11.1224 13.8303 -11.6315 -182.046 42.5784 -186.432
lowerback 10.2781 5.17247 -2.08566
upperback -8.89363 6.52918 -5.57841
thorax -15.2946 3.05981 -6.70485
lowerneck -11.896 -10.2189 -8.93976
upperneck -1.08924 -11.958 -0.388929
head 2.21709 -5.78961 0.676613
rclavicle -3.49861e-014 6.67916e-014
rhumerus 1.07813 58.7879 -21.7212
rradius 95.6434
rwrist 10.823
rhand -20.3456 32.5282
rfingers 7.12502
rthumb 6.00615 2.63337
lclavicle -3.49861e-014 6.67916e-014
lhumerus -21.8227 -51.5471 4.66957
lradius 87.4925
lwrist 16.7468
lhand 10.3317 -0.0876217
lfingers 7.12502
lthumb 35.4409 -333.636
rfemur 112.852 208.051 -150.507
rtibia 68.4621
rfoot 166.23 -206.473
rtoes 22.8305
lfemur -19.8948 20.2734 -21.7736
ltibia 61.5225
lfoot -34.5658 17.0764
ltoes 1.74401
2065
root 11.196 13.8023 -11.5857 -182.246 42.1955 -186.467
lowerback 10.1786 5.1423 -2.3157
upperback -8.55432 6.4494 -5.29307
thorax -14.8861 3.06934 -6.17186
lowerneck -12.0667 -9.93347 -8.63775
upperneck -0.512088 -11.6146 -0.553555
head 2.39976 -5.65496 0.577686
rclavicle 4.87022e-014 5.96354e-014
rhumerus 4.20269 61.318 -20.377
rradius 98.261
rwrist 12.3631
rhand -20.1463 34.1835
rfingers 7.12502
rthumb 6.19855 4.29422
lclavicle 4.87022e-014 5.96354e-014
lhumerus -21.5374 -53.1666 6.16149
lradius 93.0714
lwrist 19.7042
lhand 11.6381 0.462939
lfingers 7.12502
lthumb 36.6783 -333.39
rfemur 112.354 209.222 -149.372
rtibia 71.4726
rfoot 168.907 -204.779
rtoes 23.0977
lfemur -19.7419 20.7091 -21.1306
ltibia 61.7506
lfoot -34.4013 16.5451
ltoes 0.634928
2066
root 11.2733 13.7859 -11.5404 -182.365 41.6038 -186.382
lowerback 10.124 5.03947 -2.48749
upperback -8.24755 6.28382 -4.97903
thorax -14.5494 3.02855 -5.63627
lowerneck -12.1654 -9.68567 -8.34565
upperneck 0.0820687 -11.3352 -0.639644
head 2.58644 -5.55099 0.503102
rclavicle -2.98177e-015 1.82882e-014
rhumerus 7.61721 63.312 -18.6888
rradius 100.934
rwrist 13.664
rhand -20.3119 36.2128
rfingers 7.12502
rthumb 6.03869 6.31883
lclavicle -2.98177e-015 1.82882e-014
lhumerus -20.8405 -54.7628 7.4399
lradius 98.5137
lwrist 22.3379
lhand 12.7813 1.04562
lfingers 7.12502
lthumb 37.7593 -333.09
rfemur 112.344 210.488 -148.463
rtibia 73.836
rfoot 171.445 -202.547
rtoes 22.6555
lfemur -19.5196 21.0246 -20.3855
ltibia 61.8316
lfoot -34.1915 15.9725
ltoes -0.51708
